# xmcd
#
# Track frame offsets: 
#        150
#        5915
#        20860
#        39094
#        42922
#        63611
#        81964
#        105858
#        130034
#        141802
#        151865
#        162621
#        179389
#        199085
#        207222
#
# Disc length: 2961 seconds
#
# Revision: 0
# Processed by: cddbd v1.5.2PL0 Copyright (c) Steve Scherf et al.
# Submitted via: ExactAudioCopyFreeDBPlugin 1.0
#
DISCID=c90b8f0f
DTITLE=John Hartford - Live At Ryman Auditorium 7-12-1994
DYEAR=1900
DGENRE=Bluegrass
TTITLE0=Introduction
TTITLE1=The Boys from North Carolina
TTITLE2=Gum Tree Canoe
TTITLE3=Introduction of Tony Rice and Vassar Clements
TTITLE4=Love Grown Cold
TTITLE5=Turn Your Radio On
TTITLE6=Steam Powered Aereo Plane
TTITLE7=Tear Down the Grand Ole Opry
TTITLE8=Me and My Fiddle
TTITLE9=Presbyterian Guitar
TTITLE10=I Wonder Where You are Tonight
TTITLE11=More Big Bull Fiddle Fun
TTITLE12=Sweeter Than the Flowers
TTITLE13=Shady Grove
TTITLE14=Banks of the Ohio
EXTD=
EXTT0=
EXTT1=
EXTT2=
EXTT3=
EXTT4=
EXTT5=
EXTT6=
EXTT7=
EXTT8=
EXTT9=
EXTT10=
EXTT11=
EXTT12=
EXTT13=
EXTT14=
PLAYORDER=
